<svg width="555" height="495" viewBox="0 0 555 495" fill="none" xmlns="http://www.w3.org/2000/svg">
  <path
    d="M503.678 0H30.642C13.7189 0 0 8.50659 0 19V456C0 466.493 13.7189 495 30.642 495H503.678C520.601 495 534.32 466.493 534.32 456V19C534.32 8.50659 520.601 0 503.678 0Z"
    fill="url(#paint0_radial_319_4723)" fill-opacity="0.6" />
  <path d="M530.257 0H0V495H530.257V0Z" fill="url(#paint1_radial_319_4723)" />
  <g style="mix-blend-mode:luminosity">
    <path
      d="M484.873 15H46.3989C34.2378 15 24.3794 21.1098 24.3794 28.6467V446.353C24.3794 453.89 34.2378 460 46.3989 460H484.873C497.034 460 506.893 453.89 506.893 446.353V28.6467C506.893 21.1098 497.034 15 484.873 15Z"
      stroke="#252527" />
  </g>
  <path d="M534.32 0H0V495H534.32V0Z" fill="url(#paint2_radial_319_4723)" fill-opacity="0.2" />
  <path opacity="0.5" d="M10.1582 85H522.13L335.959 190.683H196.33L103.244 137.842L10.1582 85Z"
    fill="url(#paint3_linear_319_4723)" />
  <path opacity="0.5" d="M522.13 296.366H10.1582L196.33 190.683H335.959L522.13 296.366Z"
    fill="url(#paint4_linear_319_4723)" fill-opacity="0.4" />
  <path d="M456.971 190.089H67.562" stroke="#272729" stroke-dasharray="5 5" />
  <path
    d="M320.02 172.515H210.389C203.277 172.515 197.512 176.927 197.512 182.37V196.62C197.512 202.063 203.277 206.476 210.389 206.476H320.02C327.132 206.476 332.897 202.063 332.897 196.62V182.37C332.897 176.927 327.132 172.515 320.02 172.515Z"
    fill="#202021" />
  <path
    d="M320.02 172.515H210.389C203.277 172.515 197.512 176.927 197.512 182.37V196.62C197.512 202.063 203.277 206.476 210.389 206.476H320.02C327.132 206.476 332.897 202.063 332.897 196.62V182.37C332.897 176.927 327.132 172.515 320.02 172.515Z"
    fill="url(#paint5_radial_319_4723)" fill-opacity="0.4" />
  <path
    d="M320.02 172.515H210.389C203.277 172.515 197.512 176.927 197.512 182.37V196.62C197.512 202.063 203.277 206.476 210.389 206.476H320.02C327.132 206.476 332.897 202.063 332.897 196.62V182.37C332.897 176.927 327.132 172.515 320.02 172.515Z"
    stroke="white" stroke-opacity="0.03" stroke-width="0.6" />
  <path
    d="M320.02 172.515H210.389C203.277 172.515 197.512 176.927 197.512 182.37V196.62C197.512 202.063 203.277 206.476 210.389 206.476H320.02C327.132 206.476 332.897 202.063 332.897 196.62V182.37C332.897 176.927 327.132 172.515 320.02 172.515Z"
    stroke="url(#paint6_radial_319_4723)" stroke-width="0.6" />
  <path
    d="M398.792 88.562H131.946C125.091 88.562 119.534 92.8151 119.534 98.0616V112.311C119.534 117.558 125.091 121.811 131.946 121.811H398.792C405.646 121.811 411.203 117.558 411.203 112.311V98.0616C411.203 92.8151 405.646 88.562 398.792 88.562Z"
    fill="white" fill-opacity="0.04" />
  <path
    d="M398.792 87.9683H131.946C124.663 87.9683 118.759 92.4872 118.759 98.0616V112.311C118.759 117.885 124.663 122.404 131.946 122.404H398.792C406.075 122.404 411.979 117.885 411.979 112.311V98.0616C411.979 92.4872 406.075 87.9683 398.792 87.9683Z"
    stroke="white" stroke-opacity="0.08" stroke-dasharray="5 5" />
  <path
    d="M413.53 251.244H118.759C111.904 251.244 106.347 255.497 106.347 260.743V274.993C106.347 280.239 111.904 284.492 118.759 284.492H413.53C420.385 284.492 425.942 280.239 425.942 274.993V260.743C425.942 255.497 420.385 251.244 413.53 251.244Z"
    fill="#00FFFF" fill-opacity="0.04" />
  <path
    d="M413.531 250.649H118.759C111.476 250.649 105.572 255.168 105.572 260.743V274.992C105.572 280.567 111.476 285.086 118.759 285.086H413.531C420.814 285.086 426.718 280.567 426.718 274.992V260.743C426.718 255.168 420.814 250.649 413.531 250.649Z"
    stroke="#00FFFF" stroke-opacity="0.4" />
  <path
    d="M413.531 250.649H118.759C111.476 250.649 105.572 255.168 105.572 260.743V274.992C105.572 280.567 111.476 285.086 118.759 285.086H413.531C420.814 285.086 426.718 280.567 426.718 274.992V260.743C426.718 255.168 420.814 250.649 413.531 250.649Z"
    stroke="url(#paint7_radial_319_4723)" stroke-opacity="0.3" />
  <path
    d="M39.6167 363L44.4587 349.95H46.5827L51.4967 363H49.5167L48.4907 360.174H42.4967L41.4887 363H39.6167ZM45.4667 351.804L43.0547 358.608H47.9147L45.4667 351.804ZM54.2535 353.316V354.774C54.9135 353.694 55.9575 353.154 57.3855 353.154C59.5095 353.154 60.5715 354.396 60.5715 356.88V363H58.9335V357.366C58.9335 356.478 58.7895 355.794 58.5015 355.314C58.2255 354.822 57.6615 354.576 56.8095 354.576C56.0055 354.576 55.3755 354.846 54.9195 355.386C54.4955 355.926 54.2535 356.712 54.2535 357.744V363H52.6155V353.316H54.2535ZM65.6372 363L70.4792 349.95H72.6032L77.5172 363H75.5372L74.5112 360.174H68.5172L67.5092 363H65.6372ZM71.4872 351.804L69.0752 358.608H73.9352L71.4872 351.804ZM80.7241 349.95V363H78.8881V349.95H80.7241ZM88.5975 358.842H82.8735V357.294H88.5975V358.842ZM97.504 354.846V349.95H99.142V363H97.504V361.542C96.856 362.67 95.8 363.234 94.336 363.234C93.172 363.234 92.188 362.784 91.384 361.884C90.592 360.972 90.196 359.742 90.196 358.194C90.196 356.658 90.592 355.434 91.384 354.522C92.188 353.61 93.172 353.154 94.336 353.154C95.8 353.154 96.856 353.718 97.504 354.846ZM96.748 360.912C97.3 360.3 97.576 359.394 97.576 358.194C97.576 356.994 97.3 356.088 96.748 355.476C96.208 354.864 95.542 354.558 94.75 354.558C93.898 354.558 93.22 354.882 92.716 355.53C92.224 356.166 91.978 357.054 91.978 358.194C91.978 359.334 92.224 360.228 92.716 360.876C93.22 361.512 93.898 361.83 94.75 361.83C95.542 361.83 96.208 361.524 96.748 360.912ZM106.369 353.28V355.026C106.069 354.978 105.763 354.954 105.451 354.954C104.683 354.954 104.113 355.188 103.741 355.656C103.369 356.112 103.183 356.868 103.183 357.924V363H101.545V353.316H103.147V355.008C103.639 353.904 104.551 353.322 105.883 353.262C106.075 353.262 106.237 353.268 106.369 353.28ZM107.764 353.316H109.402V363H107.764V353.316ZM107.764 349.95H109.402V351.93H107.764V349.95ZM112.342 353.316L114.97 360.732L117.598 353.316H119.29L115.636 363H114.178L110.524 353.316H112.342ZM128.786 358.698H121.334C121.358 359.682 121.664 360.444 122.252 360.984C122.852 361.524 123.542 361.794 124.322 361.794C125.618 361.794 126.5 361.26 126.968 360.192H128.66C128.432 361.068 127.934 361.794 127.166 362.37C126.398 362.946 125.45 363.234 124.322 363.234C122.834 363.234 121.67 362.76 120.83 361.812C119.99 360.864 119.57 359.652 119.57 358.176C119.57 356.664 120.014 355.452 120.902 354.54C121.79 353.616 122.912 353.154 124.268 353.154C125.72 353.154 126.86 353.688 127.688 354.756C128.516 355.812 128.882 357.126 128.786 358.698ZM124.268 354.558C123.488 354.558 122.822 354.786 122.27 355.242C121.73 355.698 121.424 356.382 121.352 357.294H127.058C127.034 356.562 126.77 355.926 126.266 355.386C125.762 354.834 125.096 354.558 124.268 354.558ZM132.153 353.316V354.774C132.813 353.694 133.857 353.154 135.285 353.154C137.409 353.154 138.471 354.396 138.471 356.88V363H136.833V357.366C136.833 356.478 136.689 355.794 136.401 355.314C136.125 354.822 135.561 354.576 134.709 354.576C133.905 354.576 133.275 354.846 132.819 355.386C132.375 355.926 132.153 356.712 132.153 357.744V363H130.515V353.316H132.153ZM152.086 356.142H150.376C150.124 355.074 149.362 354.54 148.09 354.54C147.55 354.54 147.076 354.642 146.668 354.846C146.26 355.05 146.056 355.356 146.056 355.764C146.056 356.136 146.176 356.424 146.416 356.628C146.668 356.82 147.04 356.97 147.532 357.078L148.9 357.348C149.92 357.54 150.724 357.858 151.312 358.302C151.912 358.734 152.212 359.376 152.212 360.228C152.212 361.164 151.84 361.902 151.096 362.442C150.352 362.97 149.41 363.234 148.27 363.234C147.07 363.234 146.104 362.904 145.372 362.244C144.64 361.584 144.22 360.792 144.112 359.868H145.84C146.128 361.188 146.95 361.848 148.306 361.848C148.954 361.848 149.488 361.722 149.908 361.47C150.34 361.206 150.556 360.852 150.556 360.408C150.556 359.952 150.382 359.604 150.034 359.364C149.686 359.124 149.206 358.938 148.594 358.806L147.154 358.518C146.338 358.338 145.672 358.05 145.156 357.654C144.652 357.258 144.4 356.652 144.4 355.836C144.4 355.008 144.766 354.354 145.498 353.874C146.242 353.382 147.166 353.136 148.27 353.136C149.314 353.136 150.172 353.406 150.844 353.946C151.516 354.474 151.93 355.206 152.086 356.142ZM155.225 358.194C155.225 359.406 155.501 360.312 156.053 360.912C156.605 361.5 157.295 361.794 158.123 361.794C158.939 361.794 159.623 361.488 160.175 360.876C160.739 360.264 161.021 359.37 161.021 358.194C161.021 356.982 160.745 356.082 160.193 355.494C159.641 354.894 158.951 354.594 158.123 354.594C157.295 354.594 156.605 354.888 156.053 355.476C155.501 356.052 155.225 356.958 155.225 358.194ZM154.865 354.45C155.789 353.586 156.875 353.154 158.123 353.154C159.371 353.154 160.457 353.586 161.381 354.45C162.305 355.314 162.768 356.562 162.768 358.194C162.768 359.826 162.305 361.074 161.381 361.938C160.457 362.802 159.371 363.234 158.123 363.234C156.875 363.234 155.789 362.802 154.865 361.938C153.941 361.074 153.479 359.826 153.479 358.194C153.479 356.562 153.941 355.314 154.865 354.45ZM166.185 349.95V363H164.547V349.95H166.185ZM174.597 363V361.614C173.937 362.694 172.923 363.234 171.555 363.234C169.491 363.234 168.459 361.992 168.459 359.508V353.316H170.097V359.022C170.097 359.91 170.229 360.6 170.493 361.092C170.769 361.572 171.315 361.812 172.131 361.812C172.923 361.812 173.529 361.542 173.949 361.002C174.381 360.462 174.597 359.676 174.597 358.644V353.316H176.235V363H174.597ZM179.121 353.316V350.886H180.759V353.316H182.595V354.63H180.759V360.372C180.759 360.9 180.813 361.242 180.921 361.398C181.041 361.554 181.323 361.632 181.767 361.632H182.595V363H181.407C180.471 363 179.853 362.844 179.553 362.532C179.265 362.22 179.121 361.566 179.121 360.57V354.63H177.591V353.316H179.121ZM184.503 353.316H186.141V363H184.503V353.316ZM184.503 349.95H186.141V351.93H184.503V349.95ZM189.675 358.194C189.675 359.406 189.951 360.312 190.503 360.912C191.055 361.5 191.745 361.794 192.573 361.794C193.389 361.794 194.073 361.488 194.625 360.876C195.189 360.264 195.471 359.37 195.471 358.194C195.471 356.982 195.195 356.082 194.643 355.494C194.091 354.894 193.401 354.594 192.573 354.594C191.745 354.594 191.055 354.888 190.503 355.476C189.951 356.052 189.675 356.958 189.675 358.194ZM189.315 354.45C190.239 353.586 191.325 353.154 192.573 353.154C193.821 353.154 194.907 353.586 195.831 354.45C196.755 355.314 197.217 356.562 197.217 358.194C197.217 359.826 196.755 361.074 195.831 361.938C194.907 362.802 193.821 363.234 192.573 363.234C191.325 363.234 190.239 362.802 189.315 361.938C188.391 361.074 187.929 359.826 187.929 358.194C187.929 356.562 188.391 355.314 189.315 354.45ZM200.634 353.316V354.774C201.294 353.694 202.338 353.154 203.766 353.154C205.89 353.154 206.952 354.396 206.952 356.88V363H205.314V357.366C205.314 356.478 205.17 355.794 204.882 355.314C204.606 354.822 204.042 354.576 203.19 354.576C202.386 354.576 201.756 354.846 201.3 355.386C200.856 355.926 200.634 356.712 200.634 357.744V363H198.996V353.316H200.634ZM221.864 358.698H214.412C214.436 359.682 214.742 360.444 215.33 360.984C215.93 361.524 216.62 361.794 217.4 361.794C218.696 361.794 219.578 361.26 220.046 360.192H221.738C221.51 361.068 221.012 361.794 220.244 362.37C219.476 362.946 218.528 363.234 217.4 363.234C215.912 363.234 214.748 362.76 213.908 361.812C213.068 360.864 212.648 359.652 212.648 358.176C212.648 356.664 213.092 355.452 213.98 354.54C214.868 353.616 215.99 353.154 217.346 353.154C218.798 353.154 219.938 353.688 220.766 354.756C221.594 355.812 221.96 357.126 221.864 358.698ZM217.346 354.558C216.566 354.558 215.9 354.786 215.348 355.242C214.808 355.698 214.502 356.382 214.43 357.294H220.136C220.112 356.562 219.848 355.926 219.344 355.386C218.84 354.834 218.174 354.558 217.346 354.558ZM225.231 353.316V354.774C225.891 353.694 226.935 353.154 228.363 353.154C230.487 353.154 231.549 354.396 231.549 356.88V363H229.911V357.366C229.911 356.478 229.767 355.794 229.479 355.314C229.203 354.822 228.639 354.576 227.787 354.576C226.983 354.576 226.353 354.846 225.897 355.386C225.453 355.926 225.231 356.712 225.231 357.744V363H223.593V353.316H225.231ZM239.921 358.95V358.338C238.277 358.494 237.053 358.722 236.249 359.022C235.457 359.322 235.061 359.784 235.061 360.408C235.061 360.876 235.229 361.248 235.565 361.524C235.901 361.8 236.357 361.938 236.933 361.938C237.797 361.938 238.511 361.704 239.075 361.236C239.639 360.768 239.921 360.006 239.921 358.95ZM236.573 363.234C235.625 363.234 234.833 362.988 234.197 362.496C233.561 361.992 233.243 361.308 233.243 360.444C233.243 359.892 233.387 359.418 233.675 359.022C233.975 358.626 234.431 358.302 235.043 358.05C235.667 357.786 236.345 357.582 237.077 357.438C237.809 357.294 238.715 357.162 239.795 357.042V356.808C239.795 355.236 239.063 354.45 237.599 354.45C236.927 354.45 236.399 354.618 236.015 354.954C235.631 355.29 235.421 355.764 235.385 356.376H233.693C233.765 355.38 234.179 354.588 234.935 354C235.703 353.412 236.585 353.118 237.581 353.118C238.913 353.118 239.891 353.442 240.515 354.09C241.139 354.738 241.445 355.746 241.433 357.114L241.415 359.346C241.403 360.918 241.487 362.136 241.667 363H240.011C239.939 362.532 239.897 362.088 239.885 361.668C239.273 362.712 238.169 363.234 236.573 363.234ZM246.07 355.476C245.53 356.088 245.26 356.994 245.26 358.194C245.26 359.394 245.53 360.3 246.07 360.912C246.622 361.524 247.294 361.83 248.086 361.83C248.938 361.83 249.61 361.512 250.102 360.876C250.606 360.228 250.858 359.334 250.858 358.194C250.858 357.054 250.606 356.166 250.102 355.53C249.61 354.882 248.938 354.558 248.086 354.558C247.294 354.558 246.622 354.864 246.07 355.476ZM243.694 349.95H245.332V354.846C245.98 353.718 247.036 353.154 248.5 353.154C249.664 353.154 250.642 353.61 251.434 354.522C252.238 355.434 252.64 356.658 252.64 358.194C252.64 359.742 252.238 360.972 251.434 361.884C250.642 362.784 249.664 363.234 248.5 363.234C247.036 363.234 245.98 362.67 245.332 361.542V363H243.694V349.95ZM255.963 349.95V363H254.325V349.95H255.963ZM258.381 353.316H260.019V363H258.381V353.316ZM258.381 349.95H260.019V351.93H258.381V349.95ZM264.075 353.316V354.774C264.735 353.694 265.779 353.154 267.207 353.154C269.331 353.154 270.393 354.396 270.393 356.88V363H268.755V357.366C268.755 356.478 268.611 355.794 268.323 355.314C268.047 354.822 267.483 354.576 266.631 354.576C265.827 354.576 265.197 354.846 264.741 355.386C264.297 355.926 264.075 356.712 264.075 357.744V363H262.437V353.316H264.075ZM279.179 354.846V353.316H280.817V361.704C280.817 363.3 280.511 364.434 279.899 365.106C279.155 365.958 278.039 366.384 276.551 366.384C275.435 366.384 274.529 366.132 273.833 365.628C273.149 365.124 272.729 364.386 272.573 363.414H274.319C274.547 364.434 275.297 364.944 276.569 364.944C277.445 364.944 278.105 364.704 278.549 364.224C278.765 363.984 278.921 363.714 279.017 363.414C279.125 363.126 279.179 362.682 279.179 362.082V361.164C278.531 362.28 277.505 362.838 276.101 362.838C274.973 362.838 274.007 362.406 273.203 361.542C272.399 360.666 271.997 359.484 271.997 357.996C271.997 356.508 272.399 355.332 273.203 354.468C274.007 353.592 274.973 353.154 276.101 353.154C277.505 353.154 278.531 353.718 279.179 354.846ZM279.251 357.996C279.251 356.844 278.987 355.986 278.459 355.422C277.943 354.846 277.295 354.558 276.515 354.558C275.699 354.558 275.039 354.864 274.535 355.476C274.031 356.076 273.779 356.916 273.779 357.996C273.779 359.088 274.031 359.94 274.535 360.552C275.039 361.152 275.699 361.452 276.515 361.452C277.307 361.452 277.961 361.17 278.477 360.606C278.993 360.03 279.251 359.16 279.251 357.996ZM291.329 353.154C292.445 353.154 293.363 353.496 294.083 354.18C294.815 354.864 295.247 355.656 295.379 356.556H293.723C293.603 355.98 293.315 355.512 292.859 355.152C292.403 354.78 291.857 354.594 291.221 354.594C290.441 354.594 289.781 354.9 289.241 355.512C288.701 356.124 288.431 357.006 288.431 358.158C288.431 359.322 288.701 360.222 289.241 360.858C289.781 361.482 290.441 361.794 291.221 361.794C291.881 361.794 292.445 361.608 292.913 361.236C293.381 360.852 293.675 360.39 293.795 359.85H295.487C295.307 360.786 294.815 361.584 294.011 362.244C293.219 362.904 292.271 363.234 291.167 363.234C289.787 363.234 288.689 362.766 287.873 361.83C287.057 360.894 286.649 359.676 286.649 358.176C286.649 356.712 287.075 355.512 287.927 354.576C288.779 353.628 289.913 353.154 291.329 353.154ZM298.359 358.194C298.359 359.406 298.635 360.312 299.187 360.912C299.739 361.5 300.429 361.794 301.257 361.794C302.073 361.794 302.757 361.488 303.309 360.876C303.873 360.264 304.155 359.37 304.155 358.194C304.155 356.982 303.879 356.082 303.327 355.494C302.775 354.894 302.085 354.594 301.257 354.594C300.429 354.594 299.739 354.888 299.187 355.476C298.635 356.052 298.359 356.958 298.359 358.194ZM297.999 354.45C298.923 353.586 300.009 353.154 301.257 353.154C302.505 353.154 303.591 353.586 304.515 354.45C305.439 355.314 305.901 356.562 305.901 358.194C305.901 359.826 305.439 361.074 304.515 361.938C303.591 362.802 302.505 363.234 301.257 363.234C300.009 363.234 298.923 362.802 297.999 361.938C297.075 361.074 296.613 359.826 296.613 358.194C296.613 356.562 297.075 355.314 297.999 354.45ZM309.318 353.316V354.774C309.978 353.694 311.022 353.154 312.45 353.154C314.574 353.154 315.636 354.396 315.636 356.88V363H313.998V357.366C313.998 356.478 313.854 355.794 313.566 355.314C313.29 354.822 312.726 354.576 311.874 354.576C311.07 354.576 310.44 354.846 309.984 355.386C309.54 355.926 309.318 356.712 309.318 357.744V363H307.68V353.316H309.318ZM318.32 353.316V352.614C318.32 351.57 318.482 350.868 318.806 350.508C319.142 350.136 319.85 349.95 320.93 349.95H321.776V351.318H320.966C320.534 351.318 320.258 351.396 320.138 351.552C320.018 351.696 319.958 352.02 319.958 352.524V353.316H321.776V354.63H319.958V363H318.32V354.63H316.97V353.316H318.32ZM323.369 353.316H325.007V363H323.369V353.316ZM323.369 349.95H325.007V351.93H323.369V349.95ZM333.941 354.846V353.316H335.579V361.704C335.579 363.3 335.273 364.434 334.661 365.106C333.917 365.958 332.801 366.384 331.313 366.384C330.197 366.384 329.291 366.132 328.595 365.628C327.911 365.124 327.491 364.386 327.335 363.414H329.081C329.309 364.434 330.059 364.944 331.331 364.944C332.207 364.944 332.867 364.704 333.311 364.224C333.527 363.984 333.683 363.714 333.779 363.414C333.887 363.126 333.941 362.682 333.941 362.082V361.164C333.293 362.28 332.267 362.838 330.863 362.838C329.735 362.838 328.769 362.406 327.965 361.542C327.161 360.666 326.759 359.484 326.759 357.996C326.759 356.508 327.161 355.332 327.965 354.468C328.769 353.592 329.735 353.154 330.863 353.154C332.267 353.154 333.293 353.718 333.941 354.846ZM334.013 357.996C334.013 356.844 333.749 355.986 333.221 355.422C332.705 354.846 332.057 354.558 331.277 354.558C330.461 354.558 329.801 354.864 329.297 355.476C328.793 356.076 328.541 356.916 328.541 357.996C328.541 359.088 328.793 359.94 329.297 360.552C329.801 361.152 330.461 361.452 331.277 361.452C332.069 361.452 332.723 361.17 333.239 360.606C333.755 360.03 334.013 359.16 334.013 357.996ZM343.979 363V361.614C343.319 362.694 342.305 363.234 340.937 363.234C338.873 363.234 337.841 361.992 337.841 359.508V353.316H339.479V359.022C339.479 359.91 339.611 360.6 339.875 361.092C340.151 361.572 340.697 361.812 341.513 361.812C342.305 361.812 342.911 361.542 343.331 361.002C343.763 360.462 343.979 359.676 343.979 358.644V353.316H345.617V363H343.979ZM352.86 353.28V355.026C352.56 354.978 352.254 354.954 351.942 354.954C351.174 354.954 350.604 355.188 350.232 355.656C349.86 356.112 349.674 356.868 349.674 357.924V363H348.036V353.316H349.638V355.008C350.13 353.904 351.042 353.322 352.374 353.262C352.566 353.262 352.728 353.268 352.86 353.28ZM360.004 358.95V358.338C358.36 358.494 357.136 358.722 356.332 359.022C355.54 359.322 355.144 359.784 355.144 360.408C355.144 360.876 355.312 361.248 355.648 361.524C355.984 361.8 356.44 361.938 357.016 361.938C357.88 361.938 358.594 361.704 359.158 361.236C359.722 360.768 360.004 360.006 360.004 358.95ZM356.656 363.234C355.708 363.234 354.916 362.988 354.28 362.496C353.644 361.992 353.326 361.308 353.326 360.444C353.326 359.892 353.47 359.418 353.758 359.022C354.058 358.626 354.514 358.302 355.126 358.05C355.75 357.786 356.428 357.582 357.16 357.438C357.892 357.294 358.798 357.162 359.878 357.042V356.808C359.878 355.236 359.146 354.45 357.682 354.45C357.01 354.45 356.482 354.618 356.098 354.954C355.714 355.29 355.504 355.764 355.468 356.376H353.776C353.848 355.38 354.262 354.588 355.018 354C355.786 353.412 356.668 353.118 357.664 353.118C358.996 353.118 359.974 353.442 360.598 354.09C361.222 354.738 361.528 355.746 361.516 357.114L361.498 359.346C361.486 360.918 361.57 362.136 361.75 363H360.094C360.022 362.532 359.98 362.088 359.968 361.668C359.356 362.712 358.252 363.234 356.656 363.234ZM366.153 355.476C365.613 356.088 365.343 356.994 365.343 358.194C365.343 359.394 365.613 360.3 366.153 360.912C366.705 361.524 367.377 361.83 368.169 361.83C369.021 361.83 369.693 361.512 370.185 360.876C370.689 360.228 370.941 359.334 370.941 358.194C370.941 357.054 370.689 356.166 370.185 355.53C369.693 354.882 369.021 354.558 368.169 354.558C367.377 354.558 366.705 354.864 366.153 355.476ZM363.777 349.95H365.415V354.846C366.063 353.718 367.119 353.154 368.583 353.154C369.747 353.154 370.725 353.61 371.517 354.522C372.321 355.434 372.723 356.658 372.723 358.194C372.723 359.742 372.321 360.972 371.517 361.884C370.725 362.784 369.747 363.234 368.583 363.234C367.119 363.234 366.063 362.67 365.415 361.542V363H363.777V349.95ZM376.046 349.95V363H374.408V349.95H376.046ZM387.014 358.698H379.562C379.586 359.682 379.892 360.444 380.48 360.984C381.08 361.524 381.77 361.794 382.55 361.794C383.846 361.794 384.728 361.26 385.196 360.192H386.888C386.66 361.068 386.162 361.794 385.394 362.37C384.626 362.946 383.678 363.234 382.55 363.234C381.062 363.234 379.898 362.76 379.058 361.812C378.218 360.864 377.798 359.652 377.798 358.176C377.798 356.664 378.242 355.452 379.13 354.54C380.018 353.616 381.14 353.154 382.496 353.154C383.948 353.154 385.088 353.688 385.916 354.756C386.744 355.812 387.11 357.126 387.014 358.698ZM382.496 354.558C381.716 354.558 381.05 354.786 380.498 355.242C379.958 355.698 379.652 356.382 379.58 357.294H385.286C385.262 356.562 384.998 355.926 384.494 355.386C383.99 354.834 383.324 354.558 382.496 354.558ZM388.353 363V360.93H390.423V363.144L389.325 365.502H388.281L389.235 363H388.353ZM400.817 353.154C401.933 353.154 402.851 353.496 403.571 354.18C404.303 354.864 404.735 355.656 404.867 356.556H403.211C403.091 355.98 402.803 355.512 402.347 355.152C401.891 354.78 401.345 354.594 400.709 354.594C399.929 354.594 399.269 354.9 398.729 355.512C398.189 356.124 397.919 357.006 397.919 358.158C397.919 359.322 398.189 360.222 398.729 360.858C399.269 361.482 399.929 361.794 400.709 361.794C401.369 361.794 401.933 361.608 402.401 361.236C402.869 360.852 403.163 360.39 403.283 359.85H404.975C404.795 360.786 404.303 361.584 403.499 362.244C402.707 362.904 401.759 363.234 400.655 363.234C399.275 363.234 398.177 362.766 397.361 361.83C396.545 360.894 396.137 359.676 396.137 358.176C396.137 356.712 396.563 355.512 397.415 354.576C398.267 353.628 399.401 353.154 400.817 353.154ZM411.466 353.28V355.026C411.166 354.978 410.86 354.954 410.548 354.954C409.78 354.954 409.21 355.188 408.838 355.656C408.466 356.112 408.28 356.868 408.28 357.924V363H406.642V353.316H408.244V355.008C408.736 353.904 409.648 353.322 410.98 353.262C411.172 353.262 411.334 353.268 411.466 353.28ZM413.801 358.194C413.801 359.406 414.077 360.312 414.629 360.912C415.181 361.5 415.871 361.794 416.699 361.794C417.515 361.794 418.199 361.488 418.751 360.876C419.315 360.264 419.597 359.37 419.597 358.194C419.597 356.982 419.321 356.082 418.769 355.494C418.217 354.894 417.527 354.594 416.699 354.594C415.871 354.594 415.181 354.888 414.629 355.476C414.077 356.052 413.801 356.958 413.801 358.194ZM413.441 354.45C414.365 353.586 415.451 353.154 416.699 353.154C417.947 353.154 419.033 353.586 419.957 354.45C420.881 355.314 421.343 356.562 421.343 358.194C421.343 359.826 420.881 361.074 419.957 361.938C419.033 362.802 417.947 363.234 416.699 363.234C415.451 363.234 414.365 362.802 413.441 361.938C412.517 361.074 412.055 359.826 412.055 358.194C412.055 356.562 412.517 355.314 413.441 354.45ZM430.376 356.142H428.666C428.414 355.074 427.652 354.54 426.38 354.54C425.84 354.54 425.366 354.642 424.958 354.846C424.55 355.05 424.346 355.356 424.346 355.764C424.346 356.136 424.466 356.424 424.706 356.628C424.958 356.82 425.33 356.97 425.822 357.078L427.19 357.348C428.21 357.54 429.014 357.858 429.602 358.302C430.202 358.734 430.502 359.376 430.502 360.228C430.502 361.164 430.13 361.902 429.386 362.442C428.642 362.97 427.7 363.234 426.56 363.234C425.36 363.234 424.394 362.904 423.662 362.244C422.93 361.584 422.51 360.792 422.402 359.868H424.13C424.418 361.188 425.24 361.848 426.596 361.848C427.244 361.848 427.778 361.722 428.198 361.47C428.63 361.206 428.846 360.852 428.846 360.408C428.846 359.952 428.672 359.604 428.324 359.364C427.976 359.124 427.496 358.938 426.884 358.806L425.444 358.518C424.628 358.338 423.962 358.05 423.446 357.654C422.942 357.258 422.69 356.652 422.69 355.836C422.69 355.008 423.056 354.354 423.788 353.874C424.532 353.382 425.456 353.136 426.56 353.136C427.604 353.136 428.462 353.406 429.134 353.946C429.806 354.474 430.22 355.206 430.376 356.142ZM439.653 356.142H437.943C437.691 355.074 436.929 354.54 435.657 354.54C435.117 354.54 434.643 354.642 434.235 354.846C433.827 355.05 433.623 355.356 433.623 355.764C433.623 356.136 433.743 356.424 433.983 356.628C434.235 356.82 434.607 356.97 435.099 357.078L436.467 357.348C437.487 357.54 438.291 357.858 438.879 358.302C439.479 358.734 439.779 359.376 439.779 360.228C439.779 361.164 439.407 361.902 438.663 362.442C437.919 362.97 436.977 363.234 435.837 363.234C434.637 363.234 433.671 362.904 432.939 362.244C432.207 361.584 431.787 360.792 431.679 359.868H433.407C433.695 361.188 434.517 361.848 435.873 361.848C436.521 361.848 437.055 361.722 437.495 361.47C437.907 361.206 438.123 360.852 438.123 360.408C438.123 359.952 437.949 359.604 437.601 359.364C437.253 359.124 436.773 358.938 436.161 358.806L434.721 358.518C433.905 358.338 433.239 358.05 432.723 357.654C432.219 357.258 431.967 356.652 431.967 355.836C431.967 355.008 432.333 354.354 433.065 353.874C433.809 353.382 434.733 353.136 435.837 353.136C436.881 353.136 437.739 353.406 438.411 353.946C439.083 354.474 439.497 355.206 439.653 356.142ZM447.054 358.842H441.33V357.294H447.054V358.842ZM44.9267 384.154C46.0427 384.154 46.9607 384.496 47.6807 385.18C48.4127 385.864 48.8447 386.656 48.9767 387.556H47.3207C47.2007 386.98 46.9127 386.512 46.4567 386.152C46.0007 385.78 45.4547 385.594 44.8187 385.594C44.0387 385.594 43.3787 385.9 42.8387 386.512C42.2987 387.124 42.0287 388.006 42.0287 389.158C42.0287 390.322 42.2987 391.222 42.8387 391.858C43.3787 392.482 44.0387 392.794 44.8187 392.794C45.4787 392.794 46.0427 392.608 46.5107 392.236C46.9787 391.852 47.2727 391.39 47.3927 390.85H49.0847C48.9047 391.786 48.4127 392.584 47.6087 393.244C46.8167 393.904 45.8687 394.234 44.7647 394.234C43.3847 394.234 42.2867 393.766 41.4707 392.83C40.6547 391.894 40.2467 390.676 40.2467 389.176C40.2467 387.712 40.6727 386.512 41.5247 385.576C42.3767 384.628 43.5107 384.154 44.9267 384.154ZM52.3902 380.95V385.774C53.0502 384.694 54.0942 384.154 55.5222 384.154C57.6462 384.154 58.7082 385.396 58.7082 387.88V394H57.0702V388.366C57.0702 387.478 56.9262 386.794 56.6382 386.314C56.3622 385.822 55.7982 385.576 54.9462 385.576C54.1422 385.576 53.5122 385.846 53.0562 386.386C52.6122 386.926 52.3902 387.712 52.3902 388.744V394H50.7522V380.95H52.3902ZM67.0805 389.95V389.338C65.4365 389.494 64.2125 389.722 63.4085 390.022C62.6165 390.322 62.2205 390.784 62.2205 391.408C62.2205 391.876 62.3885 392.248 62.7245 392.524C63.0605 392.8 63.5165 392.938 64.0925 392.938C64.9565 392.938 65.6705 392.704 66.2345 392.236C66.7985 391.768 67.0805 391.006 67.0805 389.95ZM63.7325 394.234C62.7845 394.234 61.9925 393.988 61.3565 393.496C60.7205 392.992 60.4025 392.308 60.4025 391.444C60.4025 390.892 60.5465 390.418 60.8345 390.022C61.1345 389.626 61.5905 389.302 62.2025 389.05C62.8265 388.786 63.5045 388.582 64.2365 388.438C64.9685 388.294 65.8745 388.162 66.9545 388.042V387.808C66.9545 386.236 66.2225 385.45 64.7585 385.45C64.0865 385.45 63.5585 385.618 63.1745 385.954C62.7905 386.29 62.5805 386.764 62.5445 387.376H60.8525C60.9245 386.38 61.3385 385.588 62.0945 385C62.8625 384.412 63.7445 384.118 64.7405 384.118C66.0725 384.118 67.0505 384.442 67.6745 385.09C68.2985 385.738 68.6045 386.746 68.5925 388.114L68.5745 390.346C68.5625 391.918 68.6465 393.136 68.8265 394H67.1705C67.0985 393.532 67.0565 393.088 67.0445 392.668C66.4325 393.712 65.3285 394.234 63.7325 394.234ZM70.8532 384.316H72.4912V394H70.8532V384.316ZM70.8532 380.95H72.4912V382.93H70.8532V380.95ZM76.5495 384.316V385.774C77.2075 384.694 78.2515 384.154 79.6795 384.154C81.8035 384.154 82.8655 385.396 82.8655 387.88V394H81.2275V388.366C81.2275 387.478 81.0835 386.794 80.7955 386.314C80.5195 385.822 79.9555 385.576 79.1035 385.576C78.2995 385.576 77.6695 385.846 77.2135 386.386C76.7695 386.926 76.5495 387.712 76.5495 388.744V394H74.9095V384.316H76.5495ZM98.2812 387.466C98.2812 386.614 98.1792 385.876 97.9752 385.252C97.7712 384.628 97.5132 384.142 97.2012 383.794C96.8892 383.446 96.4872 383.176 95.9952 382.984C95.5032 382.78 95.0292 382.648 94.5732 382.588C94.1292 382.528 93.6012 382.498 92.9892 382.498H91.3152V392.452H92.9892C93.6012 392.452 94.1292 392.422 94.5732 392.362C95.0292 392.302 95.5032 392.176 95.9952 391.984C96.4872 391.78 96.8892 391.504 97.2012 391.156C97.5132 390.796 97.7712 390.31 97.9752 389.698C98.1792 389.074 98.2812 388.33 98.2812 387.466ZM89.4792 380.95H93.0432C94.1232 380.95 95.0772 381.064 95.9052 381.292C96.7332 381.508 97.4712 381.862 98.1192 382.354C98.7792 382.834 99.2832 383.506 99.6312 384.37C99.9792 385.234 100.153 386.266 100.153 387.466C100.153 389.806 99.5232 391.48 98.2632 392.488C97.0152 393.496 95.2752 394 93.0432 394H89.4792V380.95ZM110.746 389.698H103.294C103.318 390.682 103.624 391.444 104.212 391.984C104.812 392.524 105.502 392.794 106.282 392.794C107.578 392.794 108.46 392.26 108.928 391.192H110.62C110.392 392.068 109.894 392.794 109.126 393.37C108.358 393.946 107.41 394.234 106.282 394.234C104.794 394.234 103.63 393.76 102.79 392.812C101.95 391.864 101.53 390.652 101.53 389.176C101.53 387.664 101.974 386.452 102.862 385.54C103.75 384.616 104.872 384.154 106.228 384.154C107.68 384.154 108.82 384.688 109.648 385.756C110.476 386.812 110.842 388.126 110.746 389.698ZM106.228 385.558C105.448 385.558 104.782 385.786 104.23 386.242C103.69 386.698 103.384 387.382 103.312 388.294H109.018C108.994 387.562 108.73 386.926 108.226 386.386C107.722 385.834 107.056 385.558 106.228 385.558ZM112.727 394V380.95H121.205V382.534H114.563V386.494H120.827V388.078H114.563V394H112.727ZM122.367 384.316H124.005V394H122.367V384.316ZM122.367 380.95H124.005V382.93H122.367V380.95ZM137.769 387.142H136.059C135.807 386.074 135.045 385.54 133.773 385.54C133.233 385.54 132.759 385.642 132.351 385.846C131.943 386.05 131.739 386.356 131.739 386.764C131.739 387.136 131.859 387.424 132.099 387.628C132.351 387.82 132.723 387.97 133.215 388.078L134.583 388.348C135.603 388.54 136.407 388.858 136.995 389.302C137.595 389.734 137.895 390.376 137.895 391.228C137.895 392.164 137.523 392.902 136.779 393.442C136.035 393.97 135.093 394.234 133.953 394.234C132.753 394.234 131.787 393.904 131.055 393.244C130.323 392.584 129.903 391.792 129.795 390.868H131.523C131.811 392.188 132.633 392.848 133.989 392.848C134.637 392.848 135.171 392.722 135.591 392.47C136.023 392.206 136.239 391.852 136.239 391.408C136.239 390.952 136.065 390.604 135.717 390.364C135.369 390.124 134.889 389.938 134.277 389.806L132.837 389.518C132.021 389.338 131.355 389.05 130.839 388.654C130.335 388.258 130.083 387.652 130.083 386.836C130.083 386.008 130.449 385.354 131.181 384.874C131.925 384.382 132.849 384.136 133.953 384.136C134.997 384.136 135.855 384.406 136.527 384.946C137.199 385.474 137.613 386.206 137.769 387.142ZM140.26 384.316V381.886H141.898V384.316H143.734V385.63H141.898V391.372C141.898 391.9 141.952 392.242 142.06 392.398C142.18 392.554 142.462 392.632 142.906 392.632H143.734V394H142.546C141.61 394 140.992 393.844 140.692 393.532C140.404 393.22 140.26 392.566 140.26 391.57V385.63H138.73V384.316H140.26ZM150.289 384.28V386.026C149.989 385.978 149.683 385.954 149.371 385.954C148.603 385.954 148.033 386.188 147.661 386.656C147.289 387.112 147.103 387.868 147.103 388.924V394H145.465V384.316H147.067V386.008C147.559 384.904 148.471 384.322 149.803 384.262C149.995 384.262 150.157 384.268 150.289 384.28ZM157.434 389.95V389.338C155.79 389.494 154.566 389.722 153.762 390.022C152.97 390.322 152.574 390.784 152.574 391.408C152.574 391.876 152.742 392.248 153.078 392.524C153.414 392.8 153.87 392.938 154.446 392.938C155.31 392.938 156.024 392.704 156.588 392.236C157.152 391.768 157.434 391.006 157.434 389.95ZM154.086 394.234C153.138 394.234 152.346 393.988 151.71 393.496C151.074 392.992 150.756 392.308 150.756 391.444C150.756 390.892 150.9 390.418 151.188 390.022C151.488 389.626 151.944 389.302 152.556 389.05C153.18 388.786 153.858 388.582 154.59 388.438C155.322 388.294 156.228 388.162 157.308 388.042V387.808C157.308 386.236 156.576 385.45 155.112 385.45C154.44 385.45 153.912 385.618 153.528 385.954C153.144 386.29 152.934 386.764 152.898 387.376H151.206C151.278 386.38 151.692 385.588 152.448 385C153.216 384.412 154.098 384.118 155.094 384.118C156.426 384.118 157.404 384.442 158.028 385.09C158.652 385.738 158.958 386.746 158.946 388.114L158.928 390.346C158.916 391.918 159 393.136 159.18 394H157.524C157.452 393.532 157.41 393.088 157.398 392.668C156.786 393.712 155.682 394.234 154.086 394.234ZM161.675 384.316V381.886H163.313V384.316H165.149V385.63H163.313V391.372C163.313 391.9 163.367 392.242 163.495 392.398C163.595 392.554 163.877 392.632 164.321 392.632H165.149V394H163.961C163.025 394 162.407 393.844 162.107 393.532C161.819 393.22 161.675 392.566 161.675 391.57V385.63H160.145V384.316H161.675ZM175.342 389.698H167.89C167.914 390.682 168.22 391.444 168.808 391.984C169.408 392.524 170.098 392.794 170.878 392.794C172.174 392.794 173.056 392.26 173.524 391.192H175.216C174.988 392.068 174.49 392.794 173.722 393.37C172.954 393.946 172.006 394.234 170.878 394.234C169.39 394.234 168.226 393.76 167.386 392.812C166.546 391.864 166.126 390.652 166.126 389.176C166.126 387.664 166.57 386.452 167.458 385.54C168.346 384.616 169.468 384.154 170.824 384.154C172.276 384.154 173.416 384.688 174.244 385.756C175.072 386.812 175.438 388.126 175.342 389.698ZM170.824 385.558C170.044 385.558 169.378 385.786 168.826 386.242C168.286 386.698 167.98 387.382 167.908 388.294H173.614C173.59 387.562 173.326 386.926 172.822 386.386C172.318 385.834 171.652 385.558 170.824 385.558ZM183.675 385.846V384.316H185.313V392.704C185.313 394.3 185.007 395.434 184.395 396.106C183.651 396.958 182.535 397.384 181.047 397.384C179.931 397.384 179.025 397.132 178.329 396.628C177.645 396.124 177.225 395.386 177.069 394.414H178.815C179.043 395.434 179.793 395.944 181.065 395.944C181.941 395.944 182.601 395.704 183.045 395.224C183.261 394.984 183.417 394.714 183.513 394.414C183.621 394.126 183.675 393.682 183.675 393.082V392.164C183.027 393.28 182.001 393.838 180.597 393.838C179.469 393.838 178.503 393.406 177.699 392.542C176.895 391.666 176.493 390.484 176.493 388.996C176.493 387.508 176.895 386.332 177.699 385.468C178.503 384.592 179.469 384.154 180.597 384.154C182.001 384.154 183.027 384.718 183.675 385.846ZM183.747 388.996C183.747 387.844 183.483 386.986 182.955 386.422C182.439 385.846 181.791 385.558 181.011 385.558C180.195 385.558 179.535 385.864 179.031 386.476C178.527 387.076 178.275 387.916 178.275 388.996C178.275 390.088 178.527 390.94 179.031 391.552C179.535 392.152 180.195 392.452 181.011 392.452C181.803 392.452 182.457 392.17 182.973 391.606C183.489 391.03 183.747 390.16 183.747 388.996ZM193.102 384.316H194.812L191.356 394.414C191.092 395.17 190.846 395.722 190.618 396.07C190.402 396.43 190.09 396.7 189.682 396.88C189.274 397.06 188.71 397.15 187.99 397.15H187.144V395.782H187.81C188.422 395.782 188.86 395.692 189.124 395.512C189.4 395.332 189.64 394.894 189.844 394.198L189.916 394L186.424 384.316H188.242L190.708 391.786L193.102 384.316ZM206.118 389.95V389.338C204.474 389.494 203.25 389.722 202.446 390.022C201.654 390.322 201.258 390.784 201.258 391.408C201.258 391.876 201.426 392.248 201.762 392.524C202.098 392.8 202.554 392.938 203.13 392.938C203.994 392.938 204.708 392.704 205.272 392.236C205.836 391.768 206.118 391.006 206.118 389.95ZM202.77 394.234C201.822 394.234 201.03 393.988 200.394 393.496C199.758 392.992 199.44 392.308 199.44 391.444C199.44 390.892 199.584 390.418 199.872 390.022C200.172 389.626 200.628 389.302 201.24 389.05C201.864 388.786 202.542 388.582 203.274 388.438C204.006 388.294 204.912 388.162 205.992 388.042V387.808C205.992 386.236 205.26 385.45 203.796 385.45C203.124 385.45 202.596 385.618 202.212 385.954C201.828 386.29 201.618 386.764 201.582 387.376H199.89C199.962 386.38 200.376 385.588 201.132 385C201.9 384.412 202.782 384.118 203.778 384.118C205.11 384.118 206.088 384.442 206.712 385.09C207.336 385.738 207.642 386.746 207.63 388.114L207.612 390.346C207.6 391.918 207.684 393.136 207.864 394H206.208C206.136 393.532 206.094 393.088 206.082 392.668C205.47 393.712 204.366 394.234 202.77 394.234ZM215.885 394V392.614C215.225 393.694 214.211 394.234 212.843 394.234C210.779 394.234 209.747 392.992 209.747 390.508V384.316H211.385V390.022C211.385 390.91 211.517 391.6 211.781 392.092C212.057 392.572 212.603 392.812 213.419 392.812C214.211 392.812 214.817 392.542 215.237 392.002C215.669 391.462 215.885 390.676 215.885 389.644V384.316H217.523V394H215.885ZM220.409 384.316V381.886H222.047V384.316H223.883V385.63H222.047V391.372C222.047 391.9 222.101 392.242 222.209 392.398C222.329 392.554 222.611 392.632 223.055 392.632H223.883V394H222.695C221.759 394 221.141 393.844 220.841 393.532C220.553 393.22 220.409 392.566 220.409 391.57V385.63H218.879V384.316H220.409ZM226.643 389.194C226.643 390.406 226.919 391.312 227.471 391.912C228.023 392.5 228.713 392.794 229.541 392.794C230.357 392.794 231.041 392.488 231.593 391.876C232.157 391.264 232.439 390.37 232.439 389.194C232.439 387.982 232.163 387.082 231.611 386.494C231.059 385.894 230.369 385.594 229.541 385.594C228.713 385.594 228.023 385.888 227.471 386.476C226.919 387.052 226.643 387.958 226.643 389.194ZM226.283 385.45C227.207 384.586 228.293 384.154 229.541 384.154C230.789 384.154 231.875 384.586 232.799 385.45C233.723 386.314 234.185 387.562 234.185 389.194C234.185 390.826 233.723 392.074 232.799 392.938C231.875 393.802 230.789 394.234 229.541 394.234C228.293 394.234 227.207 393.802 226.283 392.938C225.359 392.074 224.897 390.826 224.897 389.194C224.897 387.562 225.359 386.314 226.283 385.45ZM237.602 388.744V394H235.964V384.316H237.602V385.774C238.262 384.694 239.234 384.154 240.518 384.154C241.922 384.154 242.852 384.724 243.308 385.864C244.04 384.724 245.126 384.154 246.566 384.154C248.654 384.154 249.698 385.396 249.698 387.88V394H248.06V388.366C248.06 387.49 247.916 386.806 247.628 386.314C247.352 385.822 246.806 385.576 245.99 385.576C245.27 385.576 244.7 385.852 244.28 386.404C243.86 386.944 243.65 387.724 243.65 388.744V394H242.012V388.366C242.012 387.49 241.868 386.806 241.58 386.314C241.304 385.822 240.758 385.576 239.942 385.576C239.222 385.576 238.652 385.852 238.232 386.404C237.812 386.944 237.602 387.724 237.602 388.744ZM258.075 389.95V389.338C256.431 389.494 255.207 389.722 254.403 390.022C253.611 390.322 253.215 390.784 253.215 391.408C253.215 391.876 253.383 392.248 253.719 392.524C254.055 392.8 254.511 392.938 255.087 392.938C255.951 392.938 256.665 392.704 257.229 392.236C257.793 391.768 258.075 391.006 258.075 389.95ZM254.727 394.234C253.779 394.234 252.987 393.988 252.351 393.496C251.715 392.992 251.397 392.308 251.397 391.444C251.397 390.892 251.541 390.418 251.829 390.022C252.129 389.626 252.585 389.302 253.197 389.05C253.821 388.786 254.499 388.582 255.231 388.438C255.963 388.294 256.869 388.162 257.949 388.042V387.808C257.949 386.236 257.217 385.45 255.753 385.45C255.081 385.45 254.553 385.618 254.169 385.954C253.785 386.29 253.575 386.764 253.539 387.376H251.847C251.919 386.38 252.333 385.588 253.089 385C253.857 384.412 254.739 384.118 255.735 384.118C257.067 384.118 258.045 384.442 258.669 385.09C259.293 385.738 259.599 386.746 259.587 388.114L259.569 390.346C259.557 391.918 259.641 393.136 259.821 394H258.165C258.093 393.532 258.051 393.088 258.039 392.668C257.427 393.712 256.323 394.234 254.727 394.234ZM262.316 384.316V381.886H263.954V384.316H265.79V385.63H263.954V391.372C263.954 391.9 264.008 392.242 264.116 392.398C264.236 392.554 264.518 392.632 264.962 392.632H265.79V394H264.602C263.666 394 263.048 393.844 262.748 393.532C262.46 393.22 262.316 392.566 262.316 391.57V385.63H260.786V384.316H262.316ZM267.697 384.316H269.335V394H267.697V384.316ZM267.697 380.95H269.335V382.93H267.697V380.95ZM272.87 389.194C272.87 390.406 273.146 391.312 273.698 391.912C274.25 392.5 274.94 392.794 275.768 392.794C276.584 392.794 277.268 392.488 277.82 391.876C278.384 391.264 278.666 390.37 278.666 389.194C278.666 387.982 278.39 387.082 277.838 386.494C277.286 385.894 276.596 385.594 275.768 385.594C274.94 385.594 274.25 385.888 273.698 386.476C273.146 387.052 272.87 387.958 272.87 389.194ZM272.51 385.45C273.434 384.586 274.52 384.154 275.768 384.154C277.016 384.154 278.102 384.586 279.026 385.45C279.95 386.314 280.412 387.562 280.412 389.194C280.412 390.826 279.95 392.074 279.026 392.938C278.102 393.802 277.016 394.234 275.768 394.234C274.52 394.234 273.434 393.802 272.51 392.938C271.586 392.074 271.124 390.826 271.124 389.194C271.124 387.562 271.586 386.314 272.51 385.45ZM283.829 384.316V385.774C284.489 384.694 285.533 384.154 286.961 384.154C289.085 384.154 290.147 385.396 290.147 387.88V394H288.509V388.366C288.509 387.478 288.365 386.794 288.077 386.314C287.801 385.822 287.237 385.576 286.385 385.576C285.581 385.576 284.951 385.846 284.495 386.386C284.051 386.926 283.829 387.712 283.829 388.744V394H282.191V384.316H283.829ZM298.92 391.48L300.846 384.316H302.538L304.464 391.48L306.318 384.316H308.082L305.292 394H303.798L301.656 386.206L299.586 394H298.092L295.302 384.316H297.066L298.92 391.48ZM309.284 384.316H310.922V394H309.284V384.316ZM309.284 380.95H310.922V382.93H309.284V380.95ZM313.808 384.316V381.886H315.446V384.316H317.282V385.63H315.446V391.372C315.446 391.9 315.5 392.242 315.608 392.398C315.728 392.554 316.01 392.632 316.454 392.632H317.282V394H316.094C315.158 394 314.54 393.844 314.24 393.532C313.952 393.22 313.808 392.566 313.808 391.57V385.63H312.278V384.316H313.808ZM320.827 380.95V385.774C321.487 384.694 322.531 384.154 323.959 384.154C326.083 384.154 327.145 385.396 327.145 387.88V394H325.507V388.366C325.507 387.478 325.363 386.794 325.075 386.314C324.799 385.822 324.235 385.576 323.383 385.576C322.579 385.576 321.949 385.846 321.493 386.386C321.049 386.926 320.827 387.712 320.827 388.744V394H319.189V380.95H320.827ZM338.331 384.28V386.026C338.031 385.978 337.725 385.954 337.413 385.954C336.645 385.954 336.075 386.188 335.703 386.656C335.331 387.112 335.145 387.868 335.145 388.924V394H333.507V384.316H335.109V386.008C335.601 384.904 336.513 384.322 337.845 384.262C338.037 384.262 338.199 384.268 338.331 384.28ZM339.725 384.316H341.363V394H339.725V384.316ZM339.725 380.95H341.363V382.93H339.725V380.95ZM351.036 387.142H349.326C349.074 386.074 348.312 385.54 347.04 385.54C346.5 385.54 346.026 385.642 345.618 385.846C345.21 386.05 345.006 386.356 345.006 386.764C345.006 387.136 345.126 387.424 345.366 387.628C345.618 387.82 345.99 387.97 346.482 388.078L347.85 388.348C348.87 388.54 349.674 388.858 350.262 389.302C350.862 389.734 351.162 390.376 351.162 391.228C351.162 392.164 350.79 392.902 350.046 393.442C349.302 393.97 348.36 394.234 347.22 394.234C346.02 394.234 345.054 393.904 344.322 393.244C343.59 392.584 343.17 391.792 343.062 390.868H344.79C345.078 392.188 345.9 392.848 347.256 392.848C347.904 392.848 348.438 392.722 348.858 392.47C349.29 392.206 349.506 391.852 349.506 391.408C349.506 390.952 349.332 390.604 348.984 390.364C348.636 390.124 348.156 389.938 347.544 389.806L346.104 389.518C345.288 389.338 344.622 389.05 344.106 388.654C343.602 388.258 343.35 387.652 343.35 386.836C343.35 386.008 343.716 385.354 344.448 384.874C345.192 384.382 346.116 384.136 347.22 384.136C348.264 384.136 349.122 384.406 349.794 384.946C350.466 385.474 350.88 386.206 351.036 387.142ZM353.059 380.95H354.697V388.672L358.603 384.316H360.619L356.929 388.33L361.123 394H359.125L355.831 389.536L354.697 390.76V394H353.059V380.95ZM366.624 389.842H360.9V388.294H366.624V389.842ZM374.639 389.95V389.338C372.995 389.494 371.771 389.722 370.967 390.022C370.175 390.322 369.779 390.784 369.779 391.408C369.779 391.876 369.947 392.248 370.283 392.524C370.619 392.8 371.075 392.938 371.651 392.938C372.515 392.938 373.229 392.704 373.793 392.236C374.357 391.768 374.639 391.006 374.639 389.95ZM371.291 394.234C370.343 394.234 369.551 393.988 368.915 393.496C368.279 392.992 367.961 392.308 367.961 391.444C367.961 390.892 368.105 390.418 368.393 390.022C368.693 389.626 369.149 389.302 369.761 389.05C370.385 388.786 371.063 388.582 371.795 388.438C372.527 388.294 373.433 388.162 374.513 388.042V387.808C374.513 386.236 373.781 385.45 372.317 385.45C371.645 385.45 371.117 385.618 370.733 385.954C370.349 386.29 370.139 386.764 370.103 387.376H368.411C368.483 386.38 368.897 385.588 369.653 385C370.421 384.412 371.303 384.118 372.299 384.118C373.631 384.118 374.609 384.442 375.233 385.09C375.857 385.738 376.163 386.746 376.151 388.114L376.133 390.346C376.121 391.918 376.205 393.136 376.385 394H374.729C374.657 393.532 374.615 393.088 374.603 392.668C373.991 393.712 372.887 394.234 371.291 394.234ZM385.053 385.846V380.95H386.691V394H385.053V392.542C384.405 393.67 383.349 394.234 381.885 394.234C380.721 394.234 379.737 393.784 378.933 392.884C378.141 391.972 377.745 390.742 377.745 389.194C377.745 387.658 378.141 386.434 378.933 385.522C379.737 384.61 380.721 384.154 381.885 384.154C383.349 384.154 384.405 384.718 385.053 385.846ZM384.297 391.912C384.849 391.3 385.125 390.394 385.125 389.194C385.125 387.994 384.849 387.088 384.297 386.476C383.757 385.864 383.091 385.558 382.299 385.558C381.447 385.558 380.769 385.882 380.265 386.53C379.773 387.166 379.527 388.054 379.527 389.194C379.527 390.334 379.773 391.228 380.265 391.876C380.769 392.512 381.447 392.83 382.299 392.83C383.091 392.83 383.757 392.524 384.297 391.912ZM389.095 394.522V384.316H390.733V394.486C390.733 395.518 390.577 396.22 390.265 396.592C389.965 396.964 389.359 397.15 388.447 397.15H387.619V395.782H388.087C388.507 395.782 388.777 395.698 388.897 395.53C389.029 395.374 389.095 395.038 389.095 394.522ZM389.095 380.95H390.733V382.93H389.095V380.95ZM399.145 394V392.614C398.485 393.694 397.471 394.234 396.103 394.234C394.039 394.234 393.007 392.992 393.007 390.508V384.316H394.645V390.022C394.645 390.91 394.777 391.6 395.041 392.092C395.317 392.572 395.863 392.812 396.679 392.812C397.471 392.812 398.077 392.542 398.497 392.002C398.929 391.462 399.145 390.676 399.145 389.644V384.316H400.783V394H399.145ZM410.455 387.142H408.745C408.493 386.074 407.731 385.54 406.459 385.54C405.919 385.54 405.445 385.642 405.037 385.846C404.629 386.05 404.425 386.356 404.425 386.764C404.425 387.136 404.545 387.424 404.785 387.628C405.037 387.82 405.409 387.97 405.901 388.078L407.269 388.348C408.289 388.54 409.093 388.858 409.681 389.302C410.281 389.734 410.581 390.376 410.581 391.228C410.581 392.164 410.209 392.902 409.465 393.442C408.721 393.97 407.779 394.234 406.639 394.234C405.439 394.234 404.473 393.904 403.741 393.244C403.009 392.584 402.589 391.792 402.481 390.868H404.209C404.497 392.188 405.319 392.848 406.675 392.848C407.323 392.848 407.857 392.722 408.277 392.47C408.709 392.206 408.925 391.852 408.925 391.408C408.925 390.952 408.751 390.604 408.403 390.364C408.055 390.124 407.575 389.938 406.963 389.806L405.523 389.518C404.707 389.338 404.041 389.05 403.525 388.654C403.021 388.258 402.769 387.652 402.769 386.836C402.769 386.008 403.135 385.354 403.867 384.874C404.611 384.382 405.535 384.136 406.639 384.136C407.683 384.136 408.541 384.406 409.213 384.946C409.885 385.474 410.299 386.206 410.455 387.142ZM412.946 384.316V381.886H414.584V384.316H416.42V385.63H414.584V391.372C414.584 391.9 414.638 392.242 414.746 392.398C414.866 392.554 415.148 392.632 415.592 392.632H416.42V394H415.232C414.296 394 413.678 393.844 413.378 393.532C413.09 393.22 412.946 392.566 412.946 391.57V385.63H411.416V384.316H412.946ZM426.614 389.698H419.162C419.186 390.682 419.492 391.444 420.08 391.984C420.68 392.524 421.37 392.794 422.15 392.794C423.446 392.794 424.328 392.26 424.796 391.192H426.488C426.26 392.068 425.762 392.794 424.994 393.37C424.226 393.946 423.278 394.234 422.15 394.234C420.662 394.234 419.498 393.76 418.658 392.812C417.818 391.864 417.398 390.652 417.398 389.176C417.398 387.664 417.842 386.452 418.73 385.54C419.618 384.616 420.74 384.154 422.096 384.154C423.548 384.154 424.688 384.688 425.516 385.756C426.344 386.812 426.71 388.126 426.614 389.698ZM422.096 385.558C421.316 385.558 420.65 385.786 420.098 386.242C419.558 386.698 419.252 387.382 419.18 388.294H424.886C424.862 387.562 424.598 386.926 424.094 386.386C423.59 385.834 422.924 385.558 422.096 385.558ZM435.073 385.846V380.95H436.711V394H435.073V392.542C434.425 393.67 433.369 394.234 431.905 394.234C430.741 394.234 429.757 393.784 428.953 392.884C428.161 391.972 427.765 390.742 427.765 389.194C427.765 387.658 428.161 386.434 428.953 385.522C429.757 384.61 430.741 384.154 431.905 384.154C433.369 384.154 434.425 384.718 435.073 385.846ZM434.317 391.912C434.869 391.3 435.145 390.394 435.145 389.194C435.145 387.994 434.869 387.088 434.317 386.476C433.777 385.864 433.111 385.558 432.319 385.558C431.467 385.558 430.789 385.882 430.285 386.53C429.793 387.166 429.547 388.054 429.547 389.194C429.547 390.334 429.793 391.228 430.285 391.876C430.789 392.512 431.467 392.83 432.319 392.83C433.111 392.83 433.777 392.524 434.317 391.912ZM46.2947 415.316H48.0047L44.5487 425.414C44.2847 426.17 44.0387 426.722 43.8107 427.07C43.5947 427.43 43.2827 427.7 42.8747 427.88C42.4667 428.06 41.9027 428.15 41.1827 428.15H40.3367V426.782H41.0027C41.6147 426.782 42.0527 426.692 42.3167 426.512C42.5927 426.332 42.8327 425.894 43.0367 425.198L43.1087 425L39.6167 415.316H41.4347L43.9007 422.786L46.2947 415.316ZM49.1175 415.316H50.7555V425H49.1175V415.316ZM49.1175 411.95H50.7555V413.93H49.1175V411.95ZM61.7238 420.698H54.2718C54.2958 421.682 54.6018 422.444 55.1898 422.984C55.7898 423.524 56.4798 423.794 57.2598 423.794C58.5558 423.794 59.4378 423.26 59.9058 422.192H61.5978C61.3698 423.068 60.8718 423.794 60.1038 424.37C59.3358 424.946 58.3878 425.234 57.2598 425.234C55.7718 425.234 54.6078 424.76 53.7678 423.812C52.9278 422.864 52.5078 421.652 52.5078 420.176C52.5078 418.664 52.9518 417.452 53.8398 416.54C54.7278 415.616 55.8498 415.154 57.2058 415.154C58.6578 415.154 59.7978 415.688 60.6258 416.756C61.4538 417.812 61.8198 419.126 61.7238 420.698ZM57.2058 416.558C56.4258 416.558 55.7598 416.786 55.2078 417.242C54.6678 417.698 54.3618 418.382 54.2898 419.294H59.9958C59.9718 418.562 59.7078 417.926 59.2038 417.386C58.6998 416.834 58.0338 416.558 57.2058 416.558ZM65.0908 411.95V425H63.4528V411.95H65.0908ZM74.1511 416.846V411.95H75.7891V425H74.1511V423.542C73.5031 424.67 72.4471 425.234 70.9831 425.234C69.8191 425.234 68.8351 424.784 68.0311 423.884C67.2391 422.972 66.8431 421.742 66.8431 420.194C66.8431 418.658 67.2391 417.434 68.0311 416.522C68.8351 415.61 69.8191 415.154 70.9831 415.154C72.4471 415.154 73.5031 415.718 74.1511 416.846ZM73.3951 422.912C73.9471 422.3 74.2231 421.394 74.2231 420.194C74.2231 418.994 73.9471 418.088 73.3951 417.476C72.8551 416.864 72.1891 416.558 71.3971 416.558C70.5451 416.558 69.8671 416.882 69.3631 417.53C68.8711 418.166 68.6251 419.054 68.6251 420.194C68.6251 421.334 68.8711 422.228 69.3631 422.876C69.8671 423.512 70.5451 423.83 71.3971 423.83C72.1891 423.83 72.8551 423.524 73.3951 422.912ZM83.3999 420.194C83.3999 421.406 83.6759 422.312 84.2279 422.912C84.7799 423.5 85.4699 423.794 86.2979 423.794C87.1139 423.794 87.7979 423.488 88.3499 422.876C88.9139 422.264 89.1959 421.37 89.1959 420.194C89.1959 418.982 88.9199 418.082 88.3679 417.494C87.8159 416.894 87.1259 416.594 86.2979 416.594C85.4699 416.594 84.7799 416.888 84.2279 417.476C83.6759 418.052 83.3999 418.958 83.3999 420.194ZM83.0399 416.45C83.9639 415.586 85.0499 415.154 86.2979 415.154C87.5459 415.154 88.6319 415.586 89.5559 416.45C90.4799 417.314 90.9419 418.562 90.9419 420.194C90.9419 421.826 90.4799 423.074 89.5559 423.938C88.6319 424.802 87.5459 425.234 86.2979 425.234C85.0499 425.234 83.9639 424.802 83.0399 423.938C82.1159 423.074 81.6539 421.826 81.6539 420.194C81.6539 418.562 82.1159 417.314 83.0399 416.45ZM92.7211 415.316H94.3591V416.846C95.0071 415.718 96.0631 415.154 97.5271 415.154C98.6911 415.154 99.6691 415.61 100.461 416.522C101.265 417.434 101.667 418.658 101.667 420.194C101.667 421.742 101.265 422.972 100.461 423.884C99.6691 424.784 98.6911 425.234 97.5271 425.234C96.0631 425.234 95.0071 424.67 94.3591 423.542V428.15H92.7211V415.316ZM95.0971 417.476C94.5571 418.088 94.2871 418.994 94.2871 420.194C94.2871 421.394 94.5571 422.3 95.0971 422.912C95.6491 423.524 96.3211 423.83 97.1131 423.83C97.9651 423.83 98.6371 423.512 99.1291 422.876C99.6331 422.228 99.8851 421.334 99.8851 420.194C99.8851 419.054 99.6331 418.166 99.1291 417.53C98.6371 416.882 97.9651 416.558 97.1131 416.558C96.3211 416.558 95.6491 416.864 95.0971 417.476ZM103.784 415.316V412.886H105.422V415.316H107.258V416.63H105.422V422.372C105.422 422.9 105.476 423.242 105.584 423.398C105.704 423.554 105.986 423.632 106.43 423.632H107.258V425H106.07C105.134 425 104.516 424.844 104.216 424.532C103.928 424.22 103.784 423.566 103.784 422.57V416.63H102.254V415.316H103.784ZM109.166 415.316H110.804V425H109.166V415.316ZM109.166 411.95H110.804V413.93H109.166V411.95ZM114.86 419.744V425H113.222V415.316H114.86V416.774C115.52 415.694 116.492 415.154 117.776 415.154C119.18 415.154 120.11 415.724 120.566 416.864C121.298 415.724 122.384 415.154 123.824 415.154C125.912 415.154 126.956 416.396 126.956 418.88V425H125.318V419.366C125.318 418.49 125.174 417.806 124.886 417.314C124.61 416.822 124.064 416.576 123.248 416.576C122.528 416.576 121.958 416.852 121.538 417.404C121.118 417.944 120.908 418.724 120.908 419.744V425H119.27V419.366C119.27 418.49 119.126 417.806 118.838 417.314C118.562 416.822 118.016 416.576 117.2 416.576C116.48 416.576 115.91 416.852 115.49 417.404C115.07 417.944 114.86 418.724 114.86 419.744ZM129.232 415.316H130.87V425H129.232V415.316ZM129.232 411.95H130.87V413.93H129.232V411.95ZM132.586 425V423.578L138.184 416.738H132.946V415.316H140.092V416.738L134.512 423.578H140.2V425H132.586ZM147.911 420.95V420.338C146.267 420.494 145.043 420.722 144.239 421.022C143.447 421.322 143.051 421.784 143.051 422.408C143.051 422.876 143.219 423.248 143.555 423.524C143.891 423.8 144.347 423.938 144.923 423.938C145.787 423.938 146.501 423.704 147.065 423.236C147.629 422.768 147.911 422.006 147.911 420.95ZM144.563 425.234C143.615 425.234 142.823 424.988 142.187 424.496C141.551 423.992 141.233 423.308 141.233 422.444C141.233 421.892 141.377 421.418 141.665 421.022C141.965 420.626 142.421 420.302 143.033 420.05C143.657 419.786 144.335 419.582 145.067 419.438C145.799 419.294 146.705 419.162 147.785 419.042V418.808C147.785 417.236 147.053 416.45 145.589 416.45C144.917 416.45 144.389 416.618 144.005 416.954C143.621 417.29 143.411 417.764 143.375 418.376H141.683C141.755 417.38 142.169 416.588 142.925 416C143.693 415.412 144.575 415.118 145.571 415.118C146.903 415.118 147.881 415.442 148.505 416.09C149.129 416.738 149.435 417.746 149.423 419.114L149.405 421.346C149.393 422.918 149.477 424.136 149.657 425H148.001C147.929 424.532 147.887 424.088 147.875 423.668C147.263 424.712 146.159 425.234 144.563 425.234ZM152.152 415.316V412.886H153.79V415.316H155.626V416.63H153.79V422.372C153.79 422.9 153.844 423.242 153.952 423.398C154.072 423.554 154.354 423.632 154.798 423.632H155.626V425H154.438C153.502 425 152.884 424.844 152.584 424.532C152.296 424.22 152.152 423.566 152.152 422.57V416.63H150.622V415.316H152.152ZM157.533 415.316H159.171V425H157.533V415.316ZM157.533 411.95H159.171V413.93H157.533V411.95ZM162.705 420.194C162.705 421.406 162.981 422.312 163.533 422.912C164.085 423.5 164.775 423.794 165.603 423.794C166.419 423.794 167.103 423.488 167.655 422.876C168.219 422.264 168.501 421.37 168.501 420.194C168.501 418.982 168.225 418.082 167.673 417.494C167.121 416.894 166.431 416.594 165.603 416.594C164.775 416.594 164.085 416.888 163.533 417.476C162.981 418.052 162.705 418.958 162.705 420.194ZM162.345 416.45C163.269 415.586 164.355 415.154 165.603 415.154C166.851 415.154 167.937 415.586 168.861 416.45C169.785 417.314 170.247 418.562 170.247 420.194C170.247 421.826 169.785 423.074 168.861 423.938C167.937 424.802 166.851 425.234 165.603 425.234C164.355 425.234 163.269 424.802 162.345 423.938C161.421 423.074 160.959 421.826 160.959 420.194C160.959 418.562 161.421 417.314 162.345 416.45ZM173.665 415.316V416.774C174.325 415.694 175.369 415.154 176.797 415.154C178.921 415.154 179.983 416.396 179.983 418.88V425H178.345V419.366C178.345 418.478 178.201 417.794 177.913 417.314C177.637 416.822 177.073 416.576 176.221 416.576C175.417 416.576 174.787 416.846 174.331 417.386C173.887 417.926 173.665 418.712 173.665 419.744V425H172.027V415.316H173.665ZM184.337 425H182.267V422.93H184.337V425Z"
    fill="#C5C5C5" />
  <path
    d="M64.3802 311.932C64.3802 310.228 64.1762 308.752 63.7682 307.504C63.3602 306.256 62.8442 305.284 62.2202 304.588C61.5962 303.892 60.7922 303.352 59.8082 302.968C58.8242 302.56 57.8762 302.296 56.9642 302.176C56.0762 302.056 55.0202 301.996 53.7962 301.996H50.4482V321.904H53.7962C55.0202 321.904 56.0762 321.844 56.9642 321.724C57.8762 321.604 58.8242 321.352 59.8082 320.968C60.7922 320.56 61.5962 320.008 62.2202 319.312C62.8442 318.592 63.3602 317.62 63.7682 316.396C64.1762 315.148 64.3802 313.66 64.3802 311.932ZM46.7762 298.9H53.9042C56.0642 298.9 57.9722 299.128 59.6282 299.584C61.2842 300.016 62.7602 300.724 64.0562 301.708C65.3762 302.668 66.3842 304.012 67.0802 305.74C67.7762 307.468 68.1242 309.532 68.1242 311.932C68.1242 316.612 66.8642 319.96 64.3442 321.976C61.8482 323.992 58.3682 325 53.9042 325H46.7762V298.9ZM89.3091 316.396H74.4051C74.4531 318.364 75.0651 319.888 76.2411 320.968C77.4411 322.048 78.8211 322.588 80.3811 322.588C82.9731 322.588 84.7371 321.52 85.6731 319.384H89.0571C88.6011 321.136 87.6051 322.588 86.0691 323.74C84.5331 324.892 82.6371 325.468 80.3811 325.468C77.4051 325.468 75.0771 324.52 73.3971 322.624C71.7171 320.728 70.8771 318.304 70.8771 315.352C70.8771 312.328 71.7651 309.904 73.5411 308.08C75.3171 306.232 77.5611 305.308 80.2731 305.308C83.1771 305.308 85.4571 306.376 87.1131 308.512C88.7691 310.624 89.5011 313.252 89.3091 316.396ZM80.2731 308.116C78.7131 308.116 77.3811 308.572 76.2771 309.484C75.1971 310.396 74.5851 311.764 74.4411 313.588H85.8531C85.8051 312.124 85.2771 310.852 84.2691 309.772C83.2611 308.668 81.9291 308.116 80.2731 308.116ZM93.271 325V298.9H110.227V302.068H96.943V309.988H109.471V313.156H96.943V325H93.271ZM112.552 305.632H115.828V325H112.552V305.632ZM112.552 298.9H115.828V302.86H112.552V298.9ZM126.651 298.9H130.683L137.919 321.22L145.011 298.9H148.863L140.007 325H135.615L126.651 298.9ZM150.917 305.632H154.193V325H150.917V305.632ZM150.917 298.9H154.193V302.86H150.917V298.9ZM173.538 311.284H170.118C169.614 309.148 168.09 308.08 165.546 308.08C164.466 308.08 163.518 308.284 162.702 308.692C161.886 309.1 161.478 309.712 161.478 310.528C161.478 311.272 161.718 311.848 162.198 312.256C162.702 312.64 163.446 312.94 164.43 313.156L167.166 313.696C169.206 314.08 170.814 314.716 171.99 315.604C173.19 316.468 173.79 317.752 173.79 319.456C173.79 321.328 173.046 322.804 171.558 323.884C170.07 324.94 168.186 325.468 165.906 325.468C163.506 325.468 161.574 324.808 160.11 323.488C158.646 322.168 157.806 320.584 157.59 318.736H161.046C161.622 321.376 163.266 322.696 165.978 322.696C167.274 322.696 168.342 322.444 169.182 321.94C170.046 321.412 170.478 320.704 170.478 319.816C170.478 318.904 170.13 318.208 169.434 317.728C168.738 317.248 167.778 316.876 166.554 316.612L163.674 316.036C162.042 315.676 160.71 315.1 159.678 314.308C158.67 313.516 158.166 312.304 158.166 310.672C158.166 309.016 158.898 307.708 160.362 306.748C161.85 305.764 163.698 305.272 165.906 305.272C167.994 305.272 169.71 305.812 171.054 306.892C172.398 307.948 173.226 309.412 173.538 311.284ZM178.52 305.632V300.772H181.796V305.632H185.468V308.26H181.796V319.744C181.796 320.8 181.904 321.484 182.12 321.796C182.36 322.108 182.924 322.264 183.812 322.264H185.468V325H183.092C181.22 325 179.984 324.688 179.384 324.064C178.808 323.44 178.52 322.132 178.52 320.14V308.26H175.46V305.632H178.52ZM201.135 316.9V315.676C197.847 315.988 195.399 316.444 193.791 317.044C192.207 317.644 191.415 318.568 191.415 319.816C191.415 320.752 191.751 321.496 192.423 322.048C193.095 322.6 194.007 322.876 195.159 322.876C196.887 322.876 198.315 322.408 199.443 321.472C200.571 320.536 201.135 319.012 201.135 316.9ZM194.439 325.468C192.543 325.468 190.959 324.976 189.687 323.992C188.415 322.984 187.779 321.616 187.779 319.888C187.779 318.784 188.067 317.836 188.643 317.044C189.243 316.252 190.155 315.604 191.379 315.1C192.627 314.572 193.983 314.164 195.447 313.876C196.911 313.588 198.723 313.324 200.883 313.084V312.616C200.883 309.472 199.419 307.9 196.491 307.9C195.147 307.9 194.091 308.236 193.323 308.908C192.555 309.58 192.135 310.528 192.063 311.752H188.679C188.823 309.76 189.651 308.176 191.163 307C192.699 305.824 194.463 305.236 196.455 305.236C199.119 305.236 201.075 305.884 202.323 307.18C203.571 308.476 204.183 310.492 204.159 313.228L204.123 317.692C204.099 320.836 204.267 323.272 204.627 325H201.315C201.171 324.064 201.087 323.176 201.063 322.336C199.839 324.424 197.631 325.468 194.439 325.468Z"
    fill="white" />
  <defs>
    <radialGradient id="paint0_radial_319_4723" cx="0" cy="0" r="1" gradientUnits="userSpaceOnUse"
      gradientTransform="rotate(41.6364) scale(714.928 804.304)">
      <stop stop-color="#1B1B1B" stop-opacity="0" />
      <stop offset="0.494792" stop-color="#1B1B1B" />
    </radialGradient>
    <radialGradient id="paint1_radial_319_4723" cx="0" cy="0" r="1" gradientUnits="userSpaceOnUse"
      gradientTransform="translate(24.8857 34.7855) rotate(45.4443) scale(575.702 450.531)">
      <stop stop-color="#121212" />
      <stop offset="1" stop-color="#1B1B1B" stop-opacity="0" />
    </radialGradient>
    <radialGradient id="paint2_radial_319_4723" cx="0" cy="0" r="1" gradientUnits="userSpaceOnUse"
      gradientTransform="translate(268.118 280.844) rotate(-90) scale(152.594 618.54)">
      <stop stop-color="#5E6AD2" />
      <stop offset="1" stop-opacity="0" />
    </radialGradient>
    <linearGradient id="paint3_linear_319_4723" x1="266.144" y1="111.421" x2="266.144" y2="190.683"
      gradientUnits="userSpaceOnUse">
      <stop stop-color="#1C1C1C" stop-opacity="0" />
      <stop offset="1" stop-color="#2E2E2E" />
    </linearGradient>
    <linearGradient id="paint4_linear_319_4723" x1="266.144" y1="269.946" x2="266.144" y2="190.683"
      gradientUnits="userSpaceOnUse">
      <stop stop-color="#1C1C1C" stop-opacity="0" />
      <stop offset="1" stop-color="#00FFFF" />
    </linearGradient>
    <radialGradient id="paint5_radial_319_4723" cx="0" cy="0" r="1" gradientUnits="userSpaceOnUse"
      gradientTransform="translate(264.587 170.496) rotate(90) scale(27.9051 95.1491)">
      <stop stop-color="white" stop-opacity="0.48" />
      <stop offset="1" stop-color="white" stop-opacity="0.04" />
    </radialGradient>
    <radialGradient id="paint6_radial_319_4723" cx="0" cy="0" r="1" gradientUnits="userSpaceOnUse"
      gradientTransform="translate(264.587 171.09) rotate(90) scale(31.4675 74.5351)">
      <stop stop-color="white" stop-opacity="0.48" />
      <stop offset="1" stop-color="white" stop-opacity="0.04" />
    </radialGradient>
    <radialGradient id="paint7_radial_319_4723" cx="0" cy="0" r="1" gradientUnits="userSpaceOnUse"
      gradientTransform="translate(266.145 251.243) rotate(90) scale(12.4682 119.848)">
      <stop stop-color="#5E6AD2" />
      <stop offset="1" stop-color="#5E6AD2" stop-opacity="0" />
    </radialGradient>
  </defs>
</svg>
  